{
  "source": "C:\\Users\\Peter\\Desktop\\stuff\\MIUN\\quantitative_research\\video_compression\\videos\\HEVC_CLASS_B\\Kimono_1920x1080_24.y4m",
  "output": "C:\\Users\\Peter\\Desktop\\stuff\\MIUN\\quantitative_research\\video_compression\\compressed_videos\\HEVC_CLASS_B\\av1\\1\\Kimono_1920x1080_24_av1.mkv",
  "codec": "av1",
  "ok": "Input #0, yuv4mpegpipe, from 'C:\\Users\\Peter\\Desktop\\stuff\\MIUN\\quantitative_research\\video_compression\\videos\\HEVC_CLASS_B\\Kimono_1920x1080_24.y4m':\n  Duration: 00:00:10.00, start: 0.000000, bitrate: 597198 kb/s\n  Stream #0:0: Video: rawvideo (I420 / 0x30323449), yuv420p(progressive), 1920x1080, 24 fps, 24 tbr, 24 tbn\n[out#0/matroska @ 00000194fb5e9080] Codec AVOption b:a (set bitrate (in bits/s)) has not been used for any stream. The most likely reason is either wrong type (e.g. a video option with no video streams) or that it is a private option of some decoder which was not actually used for any stream.\nStream mapping:\n  Stream #0:0 -> #0:0 (rawvideo (native) -> av1 (libsvtav1))\nPress [q] to stop, [?] for help\nSvt[info]: -------------------------------------------\nSvt[info]: SVT [version]:\tSVT-AV1 Encoder Lib v3.1.0-19-g6ecfe8ec\nSvt[info]: SVT [build]  :\tGCC 15.2.0\t 64 bit\nSvt[info]: LIB Build date: Aug 17 2025 11:37:13\nSvt[info]: -------------------------------------------\n[libsvtav1 @ 00000194fb5ec0c0] Specified chroma sample location center is unsupported on the AV1 bit stream level. Usage of a container that allows passing this information - such as Matroska - is recommended.\nSvt[info]: Level of Parallelism: 5\nSvt[info]: Number of PPCS 93\nSvt[info]: [asm level on system : up to avx2]\nSvt[info]: [asm level selected : up to avx2]\nSvt[info]: -------------------------------------------\nSvt[info]: SVT [config]: main profile\ttier (auto)\tlevel (auto)\nSvt[info]: SVT [config]: width / height / fps numerator / fps denominator \t\t: 1920 / 1080 / 24 / 1\nSvt[info]: SVT [config]: bit-depth / color format \t\t\t\t\t: 8 / YUV420\nSvt[info]: SVT [config]: preset / tune / pred struct \t\t\t\t\t: 4 / PSNR / random access\nSvt[info]: SVT [config]: gop size / mini-gop size / key-frame type \t\t\t: 161 / 16 / key frame\nSvt[info]: SVT [config]: BRC mode / target bitrate (kbps)\t\t\t\t: VBR / 1000 \nSvt[info]: SVT [config]: AQ mode / Variance Boost \t\t\t\t\t: 2 / 0\nSvt[info]: SVT [config]: sharpness / luminance-based QP bias \t\t\t\t: 0 / 0\nSvt[info]: SVT [config]: QP scale compress strength \t\t\t\t\t: 0\nSvt[info]: -------------------------------------------\nOutput #0, matroska, to 'C:\\Users\\Peter\\Desktop\\stuff\\MIUN\\quantitative_research\\video_compression\\compressed_videos\\HEVC_CLASS_B\\av1\\1\\Kimono_1920x1080_24_av1.mkv':\n  Metadata:\n    encoder         : Lavf62.3.100\n  Stream #0:0: Video: av1 (AV01 / 0x31305641), yuv420p(tv, progressive), 1920x1080, q=2-31, 1000 kb/s, 24 fps, 1k tbn\n    Metadata:\n      encoder         : Lavc62.11.100 libsvtav1\n    Side data:\n      cpb: bitrate max/min/avg: 0/0/1000000 buffer size: 1000000 vbv_delay: N/A\nframe=    0 fps=0.0 q=0.0 size=       0KiB time=N/A bitrate=N/A speed=N/A elapsed=0:00:03.00    \nframe=    0 fps=0.0 q=0.0 size=       0KiB time=N/A bitrate=N/A speed=N/A elapsed=0:00:03.55    \nframe=    0 fps=0.0 q=0.0 size=       0KiB time=N/A bitrate=N/A speed=N/A elapsed=0:00:04.11    \nframe=    0 fps=0.0 q=0.0 size=       0KiB time=N/A bitrate=N/A speed=N/A elapsed=0:00:04.64    \nframe=    0 fps=0.0 q=0.0 size=       0KiB time=N/A bitrate=N/A speed=N/A elapsed=0:00:05.20    \nframe=    0 fps=0.0 q=0.0 size=       0KiB time=N/A bitrate=N/A speed=N/A elapsed=0:00:05.76    \nframe=    0 fps=0.0 q=0.0 size=       0KiB time=N/A bitrate=N/A speed=N/A elapsed=0:00:06.31    \nframe=    0 fps=0.0 q=0.0 size=       0KiB time=N/A bitrate=N/A speed=N/A elapsed=0:00:06.84    \nframe=    0 fps=0.0 q=0.0 size=       0KiB time=N/A bitrate=N/A speed=N/A elapsed=0:00:07.37    \nframe=    0 fps=0.0 q=0.0 size=       0KiB time=N/A bitrate=N/A speed=N/A elapsed=0:00:07.93    \nframe=    0 fps=0.0 q=0.0 size=       0KiB time=N/A bitrate=N/A speed=N/A elapsed=0:00:08.44    \nframe=    0 fps=0.0 q=0.0 size=       0KiB time=N/A bitrate=N/A speed=N/A elapsed=0:00:09.04    \nframe=    0 fps=0.0 q=0.0 size=       0KiB time=N/A bitrate=N/A speed=N/A elapsed=0:00:09.64    \nframe=    0 fps=0.0 q=0.0 size=       0KiB time=N/A bitrate=N/A speed=N/A elapsed=0:00:10.22    \nframe=    0 fps=0.0 q=0.0 size=       0KiB time=N/A bitrate=N/A speed=N/A elapsed=0:00:10.76    \nframe=    0 fps=0.0 q=0.0 size=       0KiB time=N/A bitrate=N/A speed=N/A elapsed=0:00:11.29    \nframe=    0 fps=0.0 q=0.0 size=       0KiB time=N/A bitrate=N/A speed=N/A elapsed=0:00:11.86    \nframe=    0 fps=0.0 q=0.0 size=       0KiB time=N/A bitrate=N/A speed=N/A elapsed=0:00:12.43    \nframe=    1 fps=0.1 q=30.0 size=       1KiB time=00:00:00.00 bitrate=N/A speed=   0x elapsed=0:00:12.97    \nframe=    1 fps=0.1 q=30.0 size=       1KiB time=00:00:00.00 bitrate=N/A speed=   0x elapsed=0:00:13.49    \nframe=    1 fps=0.1 q=30.0 size=       1KiB time=00:00:00.00 bitrate=N/A speed=   0x elapsed=0:00:14.02    \nframe=    1 fps=0.1 q=30.0 size=       1KiB time=00:00:00.00 bitrate=N/A speed=   0x elapsed=0:00:14.55    \nframe=    1 fps=0.1 q=30.0 size=       1KiB time=00:00:00.00 bitrate=N/A speed=   0x elapsed=0:00:15.06    \nframe=    1 fps=0.1 q=30.0 size=       1KiB time=00:00:00.00 bitrate=N/A speed=   0x elapsed=0:00:15.58    \nframe=    1 fps=0.1 q=30.0 size=       1KiB time=00:00:00.00 bitrate=N/A speed=   0x elapsed=0:00:16.10    \nframe=    1 fps=0.1 q=30.0 size=       1KiB time=00:00:00.00 bitrate=N/A speed=   0x elapsed=0:00:16.65    \nframe=    1 fps=0.1 q=30.0 size=       1KiB time=00:00:00.00 bitrate=N/A speed=   0x elapsed=0:00:17.17    \nframe=    1 fps=0.1 q=30.0 size=       1KiB time=00:00:00.00 bitrate=N/A speed=   0x elapsed=0:00:17.74    \nframe=    1 fps=0.1 q=30.0 size=       1KiB time=00:00:00.00 bitrate=N/A speed=   0x elapsed=0:00:18.31    \nframe=    1 fps=0.1 q=30.0 size=       1KiB time=00:00:00.00 bitrate=N/A speed=   0x elapsed=0:00:18.87    \nframe=    3 fps=0.2 q=47.0 size=       1KiB time=00:00:00.04 bitrate= 107.9kbits/s speed=0.00215x elapsed=0:00:19.42    \nframe=    4 fps=0.2 q=49.0 size=       1KiB time=00:00:00.12 bitrate=  36.0kbits/s speed=0.00625x elapsed=0:00:19.98    \nframe=    6 fps=0.3 q=49.0 size=       1KiB time=00:00:00.20 bitrate=  21.6kbits/s speed=0.0101x elapsed=0:00:20.53    \nframe=    7 fps=0.3 q=47.0 size=       1KiB time=00:00:00.25 bitrate=  18.0kbits/s speed=0.0119x elapsed=0:00:21.03    \nframe=    7 fps=0.3 q=47.0 size=       1KiB time=00:00:00.25 bitrate=  18.0kbits/s speed=0.0116x elapsed=0:00:21.62    \nframe=    7 fps=0.3 q=47.0 size=       1KiB time=00:00:00.25 bitrate=  18.0kbits/s speed=0.0113x elapsed=0:00:22.16    \nframe=    8 fps=0.4 q=46.0 size=       1KiB time=00:00:00.29 bitrate=  15.4kbits/s speed=0.0128x elapsed=0:00:22.72    \nframe=    9 fps=0.4 q=43.0 size=       1KiB time=00:00:00.33 bitrate=  13.5kbits/s speed=0.0143x elapsed=0:00:23.30    \nframe=   11 fps=0.5 q=45.0 size=       1KiB time=00:00:00.37 bitrate=  12.0kbits/s speed=0.0157x elapsed=0:00:23.85    \nframe=   12 fps=0.5 q=46.0 size=       1KiB time=00:00:00.41 bitrate=  10.8kbits/s speed=0.017x elapsed=0:00:24.45    \nframe=   12 fps=0.5 q=46.0 size=       1KiB time=00:00:00.45 bitrate=   9.8kbits/s speed=0.0183x elapsed=0:00:25.11    \nframe=   13 fps=0.5 q=43.0 size=       1KiB time=00:00:00.45 bitrate=   9.8kbits/s speed=0.0178x elapsed=0:00:25.72    \nframe=   14 fps=0.5 q=46.0 size=       1KiB time=00:00:00.54 bitrate=   8.3kbits/s speed=0.0206x elapsed=0:00:26.30    \nframe=   16 fps=0.6 q=46.0 size=       1KiB time=00:00:00.62 bitrate=   7.2kbits/s speed=0.0232x elapsed=0:00:26.91    \nframe=   18 fps=0.7 q=48.0 size=       1KiB time=00:00:00.66 bitrate=   6.7kbits/s speed=0.0242x elapsed=0:00:27.52    \nframe=   19 fps=0.7 q=47.0 size=       1KiB time=00:00:00.75 bitrate=   6.0kbits/s speed=0.0267x elapsed=0:00:28.10    \nframe=   20 fps=0.7 q=48.0 size=       1KiB time=00:00:00.79 bitrate=   5.7kbits/s speed=0.0276x elapsed=0:00:28.64    \nframe=   22 fps=0.8 q=46.0 size=       1KiB time=00:00:00.87 bitrate=   5.1kbits/s speed=0.03x elapsed=0:00:29.20    \nframe=   23 fps=0.8 q=44.0 size=       1KiB time=00:00:00.87 bitrate=   5.1kbits/s speed=0.0294x elapsed=0:00:29.78    \nframe=   23 fps=0.8 q=44.0 size=       1KiB time=00:00:00.91 bitrate=   4.9kbits/s speed=0.0301x elapsed=0:00:30.42    \nframe=   24 fps=0.8 q=46.0 size=       1KiB time=00:00:00.95 bitrate=   4.7kbits/s speed=0.031x elapsed=0:00:30.93    \nframe=   25 fps=0.8 q=42.0 size=       1KiB time=00:00:01.00 bitrate=   4.5kbits/s speed=0.0318x elapsed=0:00:31.45    \nframe=   27 fps=0.8 q=46.0 size=       1KiB time=00:00:01.08 bitrate=   4.2kbits/s speed=0.0339x elapsed=0:00:31.97    \nframe=   28 fps=0.9 q=48.0 size=       1KiB time=00:00:01.12 bitrate=   4.0kbits/s speed=0.0346x elapsed=0:00:32.48    \nframe=   29 fps=0.9 q=43.0 size=       1KiB time=00:00:01.16 bitrate=   3.9kbits/s speed=0.0353x elapsed=0:00:33.00    \nframe=   31 fps=0.9 q=46.0 size=       1KiB time=00:00:01.25 bitrate=   3.6kbits/s speed=0.0373x elapsed=0:00:33.52    \nframe=   31 fps=0.9 q=46.0 size=       1KiB time=00:00:01.25 bitrate=   3.6kbits/s speed=0.0367x elapsed=0:00:34.02    \nframe=   34 fps=1.0 q=49.0 size=       1KiB time=00:00:01.37 bitrate=   3.3kbits/s speed=0.0398x elapsed=0:00:34.54    \nframe=   34 fps=1.0 q=49.0 size=       1KiB time=00:00:01.37 bitrate=   3.3kbits/s speed=0.0392x elapsed=0:00:35.05    \nframe=   35 fps=1.0 q=48.0 size=       1KiB time=00:00:01.41 bitrate=   3.2kbits/s speed=0.0398x elapsed=0:00:35.57    \nframe=   35 fps=1.0 q=48.0 size=       1KiB time=00:00:01.41 bitrate=   3.2kbits/s speed=0.0392x elapsed=0:00:36.09    \nframe=   37 fps=1.0 q=46.0 size=       1KiB time=00:00:01.50 bitrate=   3.0kbits/s speed=0.041x elapsed=0:00:36.61    \nframe=   38 fps=1.0 q=47.0 size=       1KiB time=00:00:01.54 bitrate=   2.9kbits/s speed=0.0415x elapsed=0:00:37.11    \nframe=   39 fps=1.0 q=44.0 size=       1KiB time=00:00:01.58 bitrate=   2.8kbits/s speed=0.0421x elapsed=0:00:37.64    \nframe=   39 fps=1.0 q=44.0 size=       1KiB time=00:00:01.58 bitrate=   2.8kbits/s speed=0.0415x elapsed=0:00:38.15    \nframe=   39 fps=1.0 q=44.0 size=       1KiB time=00:00:01.58 bitrate=   2.8kbits/s speed=0.041x elapsed=0:00:38.66    \nframe=   40 fps=1.0 q=47.0 size=       1KiB time=00:00:01.62 bitrate=   2.8kbits/s speed=0.0415x elapsed=0:00:39.17    \nframe=   42 fps=1.1 q=48.0 size=       1KiB time=00:00:01.70 bitrate=   2.6kbits/s speed=0.043x elapsed=0:00:39.70    \nframe=   43 fps=1.1 q=46.0 size=       1KiB time=00:00:01.75 bitrate=   2.6kbits/s speed=0.0435x elapsed=0:00:40.21    \nframe=   44 fps=1.1 q=46.0 size=       1KiB time=00:00:01.79 bitrate=   2.5kbits/s speed=0.044x elapsed=0:00:40.73    \nframe=   45 fps=1.1 q=43.0 size=       1KiB time=00:00:01.83 bitrate=   2.5kbits/s speed=0.0445x elapsed=0:00:41.24    \nframe=   46 fps=1.1 q=48.0 size=       1KiB time=00:00:01.87 bitrate=   2.4kbits/s speed=0.0449x elapsed=0:00:41.76    \nframe=   48 fps=1.1 q=48.0 size=       1KiB time=00:00:01.95 bitrate=   2.3kbits/s speed=0.0463x elapsed=0:00:42.28    \nframe=   50 fps=1.2 q=49.0 size=       1KiB time=00:00:02.04 bitrate=   2.2kbits/s speed=0.0477x elapsed=0:00:42.79    \nframe=   51 fps=1.2 q=48.0 size=       1KiB time=00:00:02.08 bitrate=   2.2kbits/s speed=0.0481x elapsed=0:00:43.30    \nframe=   52 fps=1.2 q=49.0 size=       1KiB time=00:00:02.12 bitrate=   2.1kbits/s speed=0.0485x elapsed=0:00:43.81    \nframe=   53 fps=1.2 q=46.0 size=       1KiB time=00:00:02.16 bitrate=   2.1kbits/s speed=0.0489x elapsed=0:00:44.33    \nframe=   54 fps=1.2 q=49.0 size=       1KiB time=00:00:02.20 bitrate=   2.0kbits/s speed=0.0492x elapsed=0:00:44.85    \nframe=   54 fps=1.2 q=49.0 size=       1KiB time=00:00:02.20 bitrate=   2.0kbits/s speed=0.0487x elapsed=0:00:45.37    \nframe=   55 fps=1.2 q=48.0 size=       1KiB time=00:00:02.25 bitrate=   2.0kbits/s speed=0.049x elapsed=0:00:45.89    \nframe=   55 fps=1.2 q=48.0 size=       1KiB time=00:00:02.25 bitrate=   2.0kbits/s speed=0.0485x elapsed=0:00:46.41    \nframe=   57 fps=1.2 q=42.0 size=       1KiB time=00:00:02.33 bitrate=   1.9kbits/s speed=0.0497x elapsed=0:00:46.91    \nframe=   58 fps=1.2 q=48.0 size=       1KiB time=00:00:02.37 bitrate=   1.9kbits/s speed=0.0501x elapsed=0:00:47.43    \nframe=   59 fps=1.2 q=46.0 size=       1KiB time=00:00:02.41 bitrate=   1.9kbits/s speed=0.0504x elapsed=0:00:47.94    \nframe=   60 fps=1.2 q=46.0 size=       1KiB time=00:00:02.45 bitrate=   1.8kbits/s speed=0.0507x elapsed=0:00:48.46    \nframe=   61 fps=1.2 q=43.0 size=       1KiB time=00:00:02.50 bitrate=   1.8kbits/s speed=0.051x elapsed=0:00:48.98    \nframe=   63 fps=1.3 q=46.0 size=       1KiB time=00:00:02.58 bitrate=   1.7kbits/s speed=0.0522x elapsed=0:00:49.49    \nframe=   65 fps=1.3 q=32.0 size=       1KiB time=00:00:02.66 bitrate=   1.7kbits/s speed=0.0533x elapsed=0:00:50.01    \nframe=   67 fps=1.3 q=48.0 size=       1KiB time=00:00:02.75 bitrate=   1.6kbits/s speed=0.0544x elapsed=0:00:50.52    \nframe=   68 fps=1.3 q=49.0 size=       1KiB time=00:00:02.79 bitrate=   1.6kbits/s speed=0.0547x elapsed=0:00:51.04    \nframe=   69 fps=1.3 q=46.0 size=       1KiB time=00:00:02.83 bitrate=   1.6kbits/s speed=0.055x elapsed=0:00:51.55    \nframe=   70 fps=1.3 q=49.0 size=       1KiB time=00:00:02.87 bitrate=   1.6kbits/s speed=0.0552x elapsed=0:00:52.08    \nframe=   70 fps=1.3 q=49.0 size=       1KiB time=00:00:02.87 bitrate=   1.6kbits/s speed=0.0547x elapsed=0:00:52.59    \nframe=   71 fps=1.3 q=43.0 size=       1KiB time=00:00:02.91 bitrate=   1.5kbits/s speed=0.0549x elapsed=0:00:53.10    \nframe=   73 fps=1.4 q=42.0 size=       1KiB time=00:00:03.00 bitrate=   1.5kbits/s speed=0.0559x elapsed=0:00:53.62    \nframe=   75 fps=1.4 q=46.0 size=       1KiB time=00:00:03.08 bitrate=   1.5kbits/s speed=0.057x elapsed=0:00:54.14    \nframe=   76 fps=1.4 q=49.0 size=       1KiB time=00:00:03.12 bitrate=   1.4kbits/s speed=0.0572x elapsed=0:00:54.65    \nframe=   77 fps=1.4 q=42.0 size=       1KiB time=00:00:03.16 bitrate=   1.4kbits/s speed=0.0574x elapsed=0:00:55.16    \nframe=   79 fps=1.4 q=47.0 size=       1KiB time=00:00:03.25 bitrate=   1.4kbits/s speed=0.0584x elapsed=0:00:55.69    \nframe=   80 fps=1.4 q=52.0 size=       1KiB time=00:00:03.29 bitrate=   1.4kbits/s speed=0.0586x elapsed=0:00:56.19    \nframe=   81 fps=1.4 q=32.0 size=       1KiB time=00:00:03.33 bitrate=   1.3kbits/s speed=0.0588x elapsed=0:00:56.71    \nframe=   83 fps=1.5 q=50.0 size=       1KiB time=00:00:03.41 bitrate=   1.3kbits/s speed=0.0597x elapsed=0:00:57.23    \nframe=   85 fps=1.5 q=47.0 size=       1KiB time=00:00:03.50 bitrate=   1.3kbits/s speed=0.0606x elapsed=0:00:57.79    \nframe=   86 fps=1.5 q=52.0 size=       1KiB time=00:00:03.54 bitrate=   1.3kbits/s speed=0.0607x elapsed=0:00:58.34    \nframe=   88 fps=1.5 q=52.0 size=       1KiB time=00:00:03.62 bitrate=   1.2kbits/s speed=0.0616x elapsed=0:00:58.85    \nframe=   91 fps=1.5 q=49.0 size=       1KiB time=00:00:03.75 bitrate=   1.2kbits/s speed=0.0631x elapsed=0:00:59.42    \nframe=   92 fps=1.5 q=52.0 size=       1KiB time=00:00:03.79 bitrate=   1.2kbits/s speed=0.0632x elapsed=0:00:59.95    \nframe=   93 fps=1.5 q=45.0 size=       1KiB time=00:00:03.83 bitrate=   1.2kbits/s speed=0.0634x elapsed=0:01:00.47    \nframe=   95 fps=1.6 q=48.0 size=       1KiB time=00:00:03.91 bitrate=   1.1kbits/s speed=0.0642x elapsed=0:01:00.99    \nframe=   95 fps=1.5 q=48.0 size=       1KiB time=00:00:03.91 bitrate=   1.1kbits/s speed=0.0637x elapsed=0:01:01.52    \nframe=   98 fps=1.6 q=51.0 size=       1KiB time=00:00:04.04 bitrate=   1.1kbits/s speed=0.0651x elapsed=0:01:02.05    \nframe=   99 fps=1.6 q=50.0 size=       1KiB time=00:00:04.08 bitrate=   1.1kbits/s speed=0.0653x elapsed=0:01:02.57    \nframe=  101 fps=1.6 q=48.0 size=       1KiB time=00:00:04.16 bitrate=   1.1kbits/s speed=0.066x elapsed=0:01:03.14    \nframe=  102 fps=1.6 q=51.0 size=       1KiB time=00:00:04.20 bitrate=   1.1kbits/s speed=0.066x elapsed=0:01:03.72    \nframe=  102 fps=1.6 q=51.0 size=       1KiB time=00:00:04.20 bitrate=   1.1kbits/s speed=0.0654x elapsed=0:01:04.31    \nframe=  103 fps=1.6 q=46.0 size=       1KiB time=00:00:04.25 bitrate=   1.1kbits/s speed=0.0655x elapsed=0:01:04.90    \nframe=  104 fps=1.6 q=51.0 size=       1KiB time=00:00:04.29 bitrate=   1.0kbits/s speed=0.0656x elapsed=0:01:05.43    \nframe=  106 fps=1.6 q=51.0 size=       1KiB time=00:00:04.37 bitrate=   1.0kbits/s speed=0.0663x elapsed=0:01:05.95    \nframe=  107 fps=1.6 q=48.0 size=       1KiB time=00:00:04.41 bitrate=   1.0kbits/s speed=0.0664x elapsed=0:01:06.46    \nframe=  108 fps=1.6 q=52.0 size=       1KiB time=00:00:04.45 bitrate=   1.0kbits/s speed=0.0666x elapsed=0:01:06.98    \nframe=  110 fps=1.6 q=52.0 size=       1KiB time=00:00:04.54 bitrate=   1.0kbits/s speed=0.0673x elapsed=0:01:07.49    \nframe=  111 fps=1.6 q=49.0 size=       1KiB time=00:00:04.58 bitrate=   1.0kbits/s speed=0.0674x elapsed=0:01:08.00    \nframe=  113 fps=1.6 q=34.0 size=       1KiB time=00:00:04.66 bitrate=   1.0kbits/s speed=0.0681x elapsed=0:01:08.52    \nframe=  115 fps=1.7 q=51.0 size=       1KiB time=00:00:04.75 bitrate=   0.9kbits/s speed=0.0688x elapsed=0:01:09.03    \nframe=  118 fps=1.7 q=52.0 size=       1KiB time=00:00:04.87 bitrate=   0.9kbits/s speed=0.0701x elapsed=0:01:09.55    \nframe=  118 fps=1.7 q=52.0 size=       1KiB time=00:00:04.87 bitrate=   0.9kbits/s speed=0.0696x elapsed=0:01:10.07    \nframe=  118 fps=1.7 q=52.0 size=       1KiB time=00:00:04.87 bitrate=   0.9kbits/s speed=0.0691x elapsed=0:01:10.58    \nframe=  119 fps=1.7 q=51.0 size=       1KiB time=00:00:04.91 bitrate=   0.9kbits/s speed=0.0691x elapsed=0:01:11.11    \nframe=  120 fps=1.7 q=52.0 size=       1KiB time=00:00:04.95 bitrate=   0.9kbits/s speed=0.0692x elapsed=0:01:11.62    \nframe=  122 fps=1.7 q=52.0 size=       1KiB time=00:00:05.04 bitrate=   0.9kbits/s speed=0.0699x elapsed=0:01:12.14    \nframe=  123 fps=1.7 q=50.0 size=     512KiB time=00:00:05.08 bitrate= 825.1kbits/s speed=0.07x elapsed=0:01:12.66    \nframe=  125 fps=1.7 q=46.0 size=     512KiB time=00:00:05.16 bitrate= 811.8kbits/s speed=0.0706x elapsed=0:01:13.18    \nframe=  127 fps=1.7 q=49.0 size=     512KiB time=00:00:05.25 bitrate= 798.9kbits/s speed=0.0712x elapsed=0:01:13.70    \nframe=  128 fps=1.7 q=51.0 size=     512KiB time=00:00:05.29 bitrate= 792.6kbits/s speed=0.0713x elapsed=0:01:14.22    \nframe=  130 fps=1.7 q=52.0 size=     512KiB time=00:00:05.37 bitrate= 780.3kbits/s speed=0.0719x elapsed=0:01:14.72    \nframe=  131 fps=1.7 q=51.0 size=     512KiB time=00:00:05.41 bitrate= 774.3kbits/s speed=0.072x elapsed=0:01:15.24    \nframe=  133 fps=1.8 q=49.0 size=     512KiB time=00:00:05.50 bitrate= 762.6kbits/s speed=0.0726x elapsed=0:01:15.76    \nframe=  134 fps=1.8 q=51.0 size=     512KiB time=00:00:05.54 bitrate= 756.9kbits/s speed=0.0727x elapsed=0:01:16.27    \nframe=  135 fps=1.8 q=48.0 size=     512KiB time=00:00:05.58 bitrate= 751.2kbits/s speed=0.0727x elapsed=0:01:16.79    \nframe=  138 fps=1.8 q=52.0 size=     512KiB time=00:00:05.70 bitrate= 734.8kbits/s speed=0.0738x elapsed=0:01:17.31    \nframe=  139 fps=1.8 q=50.0 size=     512KiB time=00:00:05.75 bitrate= 729.4kbits/s speed=0.0739x elapsed=0:01:17.82    \nframe=  142 fps=1.8 q=53.0 size=     512KiB time=00:00:05.87 bitrate= 713.9kbits/s speed=0.075x elapsed=0:01:18.34    \nframe=  145 fps=1.8 q=31.0 size=     512KiB time=00:00:06.00 bitrate= 699.1kbits/s speed=0.0761x elapsed=0:01:18.85    \nframe=  149 fps=1.9 q=50.0 size=     512KiB time=00:00:06.16 bitrate= 680.2kbits/s speed=0.0777x elapsed=0:01:19.37    \nframe=  153 fps=1.9 q=47.0 size=     512KiB time=00:00:06.33 bitrate= 662.3kbits/s speed=0.0793x elapsed=0:01:19.89    \nframe=  153 fps=1.9 q=47.0 size=     512KiB time=00:00:06.33 bitrate= 662.3kbits/s speed=0.0787x elapsed=0:01:20.42    \nframe=  157 fps=1.9 q=50.0 size=     512KiB time=00:00:06.50 bitrate= 645.3kbits/s speed=0.0803x elapsed=0:01:20.92    \nframe=  161 fps=2.0 q=40.0 size=     512KiB time=00:00:06.66 bitrate= 629.1kbits/s speed=0.0819x elapsed=0:01:21.44    \nframe=  162 fps=2.0 q=25.0 size=     512KiB time=00:00:06.70 bitrate= 625.2kbits/s speed=0.0818x elapsed=0:01:21.96    \nframe=  162 fps=2.0 q=25.0 size=     512KiB time=00:00:06.70 bitrate= 625.2kbits/s speed=0.0813x elapsed=0:01:22.48    \nframe=  162 fps=2.0 q=25.0 size=     512KiB time=00:00:06.70 bitrate= 625.2kbits/s speed=0.0808x elapsed=0:01:22.99    \nframe=  162 fps=1.9 q=25.0 size=     512KiB time=00:00:06.70 bitrate= 625.2kbits/s speed=0.0803x elapsed=0:01:23.50    \nframe=  162 fps=1.9 q=25.0 size=     512KiB time=00:00:06.70 bitrate= 625.2kbits/s speed=0.0798x elapsed=0:01:24.02    \nframe=  162 fps=1.9 q=25.0 size=     512KiB time=00:00:06.70 bitrate= 625.2kbits/s speed=0.0793x elapsed=0:01:24.54    \nframe=  162 fps=1.9 q=25.0 size=     512KiB time=00:00:06.70 bitrate= 625.2kbits/s speed=0.0788x elapsed=0:01:25.12    \nframe=  162 fps=1.9 q=25.0 size=     512KiB time=00:00:06.70 bitrate= 625.2kbits/s speed=0.0783x elapsed=0:01:25.64    \nframe=  166 fps=1.9 q=48.0 size=     768KiB time=00:00:06.87 bitrate= 915.1kbits/s speed=0.0797x elapsed=0:01:26.22    \nframe=  170 fps=2.0 q=43.0 size=     768KiB time=00:00:07.04 bitrate= 893.5kbits/s speed=0.0811x elapsed=0:01:26.79    \nframe=  170 fps=1.9 q=43.0 size=     768KiB time=00:00:07.04 bitrate= 893.5kbits/s speed=0.0806x elapsed=0:01:27.36    \nframe=  170 fps=1.9 q=43.0 size=     768KiB time=00:00:07.04 bitrate= 893.5kbits/s speed=0.0801x elapsed=0:01:27.88    \nframe=  174 fps=2.0 q=46.0 size=     768KiB time=00:00:07.20 bitrate= 872.8kbits/s speed=0.0815x elapsed=0:01:28.49    \nframe=  178 fps=2.0 q=32.0 size=     768KiB time=00:00:07.37 bitrate= 853.1kbits/s speed=0.0828x elapsed=0:01:29.08    \nframe=  178 fps=2.0 q=32.0 size=     768KiB time=00:00:07.37 bitrate= 853.1kbits/s speed=0.0822x elapsed=0:01:29.66    \nframe=  178 fps=2.0 q=32.0 size=     768KiB time=00:00:07.37 bitrate= 853.1kbits/s speed=0.0817x elapsed=0:01:30.23    \nframe=  178 fps=2.0 q=32.0 size=     768KiB time=00:00:07.37 bitrate= 853.1kbits/s speed=0.0812x elapsed=0:01:30.83    \nframe=  180 fps=2.0 q=46.0 size=     768KiB time=00:00:07.45 bitrate= 843.5kbits/s speed=0.0816x elapsed=0:01:31.42    \nframe=  182 fps=2.0 q=43.0 size=     768KiB time=00:00:07.54 bitrate= 834.2kbits/s speed=0.0819x elapsed=0:01:32.03    \nframe=  186 fps=2.0 q=38.0 size=     768KiB time=00:00:07.62 bitrate= 825.1kbits/s speed=0.0822x elapsed=0:01:32.74    \nframe=  186 fps=2.0 q=38.0 size=     768KiB time=00:00:07.70 bitrate= 816.2kbits/s speed=0.0825x elapsed=0:01:33.41    \nframe=  186 fps=2.0 q=38.0 size=     768KiB time=00:00:07.70 bitrate= 816.2kbits/s speed=0.0821x elapsed=0:01:33.93    \nframe=  192 fps=2.0 q=46.0 size=     768KiB time=00:00:07.95 bitrate= 790.5kbits/s speed=0.0843x elapsed=0:01:34.44    \nframe=  194 fps=2.0 q=27.0 size=     768KiB time=00:00:08.04 bitrate= 782.4kbits/s speed=0.0847x elapsed=0:01:34.96    \nframe=  194 fps=2.0 q=27.0 size=     768KiB time=00:00:08.04 bitrate= 782.4kbits/s speed=0.0842x elapsed=0:01:35.47    \nframe=  194 fps=2.0 q=27.0 size=     768KiB time=00:00:08.04 bitrate= 782.4kbits/s speed=0.0838x elapsed=0:01:36.00    \nframe=  194 fps=2.0 q=27.0 size=     768KiB time=00:00:08.04 bitrate= 782.4kbits/s speed=0.0833x elapsed=0:01:36.50    \nframe=  196 fps=2.0 q=45.0 size=     768KiB time=00:00:08.12 bitrate= 774.3kbits/s speed=0.0837x elapsed=0:01:37.03    \nframe=  198 fps=2.0 q=43.0 size=     768KiB time=00:00:08.20 bitrate= 766.5kbits/s speed=0.0842x elapsed=0:01:37.54    \nframe=  202 fps=2.1 q=37.0 size=     768KiB time=00:00:08.37 bitrate= 751.2kbits/s speed=0.0854x elapsed=0:01:38.05    \nframe=  202 fps=2.0 q=37.0 size=     768KiB time=00:00:08.37 bitrate= 751.2kbits/s speed=0.085x elapsed=0:01:38.57    \nframe=  206 fps=2.1 q=42.0 size=     768KiB time=00:00:08.54 bitrate= 736.6kbits/s speed=0.0862x elapsed=0:01:39.08    \nframe=  206 fps=2.1 q=42.0 size=     768KiB time=00:00:08.54 bitrate= 736.6kbits/s speed=0.0858x elapsed=0:01:39.60    \nframe=  210 fps=2.1 q=26.0 size=     768KiB time=00:00:08.70 bitrate= 722.5kbits/s speed=0.087x elapsed=0:01:40.12    \nframe=  210 fps=2.1 q=26.0 size=     768KiB time=00:00:08.70 bitrate= 722.5kbits/s speed=0.0865x elapsed=0:01:40.64    \nframe=  210 fps=2.1 q=26.0 size=     768KiB time=00:00:08.70 bitrate= 722.5kbits/s speed=0.0861x elapsed=0:01:41.14    \nframe=  210 fps=2.1 q=26.0 size=     768KiB time=00:00:08.70 bitrate= 722.5kbits/s speed=0.0857x elapsed=0:01:41.66    \nframe=  212 fps=2.1 q=44.0 size=     768KiB time=00:00:08.79 bitrate= 715.6kbits/s speed=0.086x elapsed=0:01:42.19    \nframe=  214 fps=2.1 q=42.0 size=     768KiB time=00:00:08.87 bitrate= 708.9kbits/s speed=0.0864x elapsed=0:01:42.70    \nframe=  216 fps=2.1 q=38.0 size=     768KiB time=00:00:08.95 bitrate= 702.3kbits/s speed=0.0868x elapsed=0:01:43.22    \nframe=  218 fps=2.1 q=37.0 size=     768KiB time=00:00:09.04 bitrate= 695.8kbits/s speed=0.0872x elapsed=0:01:43.73    \nframe=  218 fps=2.1 q=37.0 size=     768KiB time=00:00:09.04 bitrate= 695.8kbits/s speed=0.0867x elapsed=0:01:44.24    \nframe=  222 fps=2.1 q=43.0 size=     768KiB time=00:00:09.20 bitrate= 683.2kbits/s speed=0.0878x elapsed=0:01:44.92    \nframe=  238 fps=2.2 q=34.0 size=     768KiB time=00:00:09.79 bitrate= 642.5kbits/s speed=0.0926x elapsed=0:01:45.78    \n[out#0/matroska @ 00000194fb5e9080] video:1102KiB audio:0KiB subtitle:0KiB other streams:0KiB global headers:0KiB muxing overhead: 0.155939%\nframe=  240 fps=2.3 q=40.0 Lsize=    1104KiB time=00:00:09.95 bitrate= 908.1kbits/s speed=0.0939x elapsed=0:01:46.06    \n",
  "seconds": 108.51041507720947,
  "probe_out": {}
}